name Walk5.mot
datacolumns 19
datarows 22
range 1.18000000 1.20100000
endheader

                time	   L_ground_force_vx	   L_ground_force_vy	   L_ground_force_vz	   L_ground_force_px	   L_ground_force_py	   L_ground_force_pz	   R_ground_force_vx	   R_ground_force_vy	   R_ground_force_vz	   R_ground_force_px	   R_ground_force_py	   R_ground_force_pz	   L_ground_torque_x	   L_ground_torque_y	   L_ground_torque_z	   R_ground_torque_x	   R_ground_torque_y	   R_ground_torque_z	
          1.18000000	         -0.00000000	         -0.00000001	          0.00000000	         -0.00000000	          0.00000000	         -0.00000000	         -3.94523795	         87.86901194	          8.56317684	         -0.00727390	          0.00000000	          0.00372586	          0.00000000	         -0.00000000	          0.00000000	          0.00000000	          0.10516028	          0.00000000	
          1.18100000	         -0.00000000	         -0.00000001	          0.00000000	         -0.00000000	          0.00000000	         -0.00000000	         -5.29759796	         96.22783251	          8.95578874	         -0.02077217	          0.00000000	          0.01774569	          0.00000000	         -0.00000000	          0.00000000	          0.00000000	          0.10668185	          0.00000000	
          1.18200000	         -0.00000000	         -0.00000001	          0.00000000	         -0.00000000	          0.00000000	         -0.00000000	         -6.67597926	        104.82453057	          9.35684019	         -0.03423162	          0.00000000	          0.03173194	          0.00000000	         -0.00000000	          0.00000000	          0.00000000	          0.10857220	          0.00000000	
          1.18300000	         -0.00000000	         -0.00000001	          0.00000000	         -0.00000000	          0.00000000	         -0.00000000	         -8.07853240	        113.64836427	          9.76529573	         -0.04761279	          0.00000000	          0.04564438	          0.00000000	         -0.00000000	          0.00000000	          0.00000000	          0.11084882	          0.00000000	
          1.18400000	          0.00000000	         -0.00000002	          0.00000000	         -0.00000000	          0.00000000	         -0.00000000	         -9.50331215	        122.68696637	         10.17997279	         -0.06087599	          0.00000000	          0.05944260	          0.00000000	         -0.00000000	          0.00000000	          0.00000000	          0.11352720	          0.00000000	
          1.18500000	          0.00000000	         -0.00000002	          0.00000000	         -0.00000000	          0.00000000	         -0.00000000	        -10.94829489	        131.92626538	         10.59953078	         -0.07398217	          0.00000000	          0.07308692	          0.00000000	         -0.00000000	          0.00000000	          0.00000000	          0.11661986	          0.00000000	
          1.18600000	          0.00000000	         -0.00000002	          0.00000000	         -0.00000000	          0.00000000	         -0.00000000	        -12.41143348	        141.35046988	         11.02245560	         -0.08689445	          0.00000000	          0.08654000	          0.00000000	         -0.00000000	          0.00000000	          0.00000000	          0.12013486	          0.00000000	
          1.18700000	          0.00000000	         -0.00000002	          0.00000000	         -0.00000000	          0.00000000	         -0.00000000	        -13.89072844	        150.94210305	         11.44704251	         -0.09957913	          0.00000000	          0.09976788	          0.00000000	         -0.00000000	          0.00000000	          0.00000000	          0.12407531	          0.00000000	
          1.18800000	          0.00000000	         -0.00000002	          0.00000000	         -0.00000000	          0.00000000	         -0.00000000	        -15.38430060	        160.68208537	         11.87137949	         -0.11200590	          0.00000000	          0.11274022	          0.00000000	         -0.00000000	          0.00000000	          0.00000000	          0.12844006	          0.00000000	
          1.18900000	          0.00000000	         -0.00000002	          0.00000000	         -0.00000000	          0.00000000	         -0.00000000	        -16.89046816	        170.54988837	         12.29333195	         -0.12414770	          0.00000000	          0.12543011	          0.00000000	         -0.00000000	          0.00000000	          0.00000000	          0.13322514	          0.00000000	
          1.19000000	          0.00000000	         -0.00000003	          0.00000000	         -0.00000000	          0.00000000	         -0.00000000	        -18.40782735	        180.52377705	         12.71053023	         -0.13598065	          0.00000000	          0.13781400	          0.00000000	         -0.00000000	          0.00000000	          0.00000000	          0.13842521	          0.00000000	
          1.19100000	          0.00000000	         -0.00000003	          0.00000000	         -0.00000000	          0.00000000	         -0.00000000	        -19.93532872	        190.58114285	         13.12036228	         -0.14748390	          0.00000000	          0.14987153	          0.00000000	         -0.00000000	          0.00000000	          0.00000000	          0.14403489	          0.00000000	
          1.19200000	          0.00000000	         -0.00000003	          0.00000000	         -0.00000000	          0.00000000	         -0.00000000	        -21.47234013	        200.69891492	         13.51997483	         -0.15863947	          0.00000000	          0.16158529	          0.00000000	         -0.00000000	          0.00000000	          0.00000000	          0.15004971	          0.00000000	
          1.19300000	          0.00000000	         -0.00000003	          0.00000000	         -0.00000000	          0.00000000	         -0.00000000	        -23.01868723	        210.85402210	         13.90628556	         -0.16943215	          0.00000000	          0.17294075	          0.00000000	         -0.00000000	          0.00000000	          0.00000000	          0.15646671	          0.00000000	
          1.19400000	          0.00000000	         -0.00000003	          0.00000000	         -0.00000000	          0.00000000	         -0.00000000	        -24.57466601	        221.02386732	         14.27600797	         -0.17984926	          0.00000000	          0.18392597	          0.00000000	         -0.00000000	          0.00000000	          0.00000000	          0.16328476	          0.00000000	
          1.19500000	          0.00000000	         -0.00000004	          0.00000001	         -0.00000000	          0.00000000	         -0.00000000	        -26.14102627	        231.18677326	         14.62568883	         -0.18988057	          0.00000000	          0.19453149	          0.00000000	         -0.00000000	          0.00000000	          0.00000000	          0.17050449	          0.00000000	
          1.19600000	          0.00000000	         -0.00000004	          0.00000001	         -0.00000000	          0.00000000	         -0.00000000	        -27.71892950	        241.32236225	         14.95175579	         -0.19951808	          0.00000000	          0.20475013	          0.00000000	         -0.00000000	          0.00000000	          0.00000000	          0.17812819	          0.00000000	
          1.19700000	          0.00000000	         -0.00000004	          0.00000001	         -0.00000000	          0.00000000	         -0.00000000	        -29.30988776	        251.41184416	         15.25057197	         -0.20875589	          0.00000000	          0.21457681	          0.00000000	         -0.00000000	          0.00000000	          0.00000000	          0.18615958	          0.00000000	
          1.19800000	          0.00000000	         -0.00000004	          0.00000001	         -0.00000000	          0.00000000	         -0.00000000	        -30.91569135	        261.43819866	         15.51849345	         -0.21759006	          0.00000000	          0.22400840	          0.00000000	         -0.00000000	          0.00000000	          0.00000000	          0.19460357	          0.00000000	
          1.19900000	          0.00000000	         -0.00000005	          0.00000001	         -0.00000000	          0.00000000	         -0.00000000	        -32.53833208	        271.38625151	         15.75192590	         -0.22601844	          0.00000000	          0.23304355	          0.00000000	         -0.00000000	          0.00000000	          0.00000000	          0.20346609	          0.00000000	
          1.20000000	          0.00000000	         -0.00000005	          0.00000001	         -0.00000000	          0.00000000	         -0.00000000	        -34.17992781	        281.24265586	         15.94737728	         -0.23404051	          0.00000000	          0.24168255	          0.00000000	         -0.00000000	          0.00000000	          0.00000000	          0.21275386	          0.00000000	
          1.20100000	          0.00000000	         -0.00000005	          0.00000001	         -0.00000000	          0.00000000	         -0.00000000	        -35.84265142	        290.99579793	         16.10150463	         -0.24165729	          0.00000000	          0.24992720	          0.00000000	         -0.00000000	          0.00000000	          0.00000000	          0.22247417	          0.00000000	
